<svg width="12px" height="16px" viewBox="0 0 12 16" version="1.1">
<g id="surface1">
<path style=" stroke:none;fill-rule:nonzero;fill:rgb(0%,0%,0%);fill-opacity:1;" d="M 3.597656 3.753906 C 3.195312 4.125 2.5625 4.054688 2.21875 3.597656 C 1.875 3.195312 1.945312 2.5625 2.375 2.21875 L 2.5625 2.070312 C 3.429688 1.378906 4.503906 1 5.613281 1 L 6.96875 1 C 8.917969 1 10.5 2.582031 10.5 4.503906 C 10.5 4.863281 10.453125 5.191406 10.367188 5.5 L 11 5.5 C 11.554688 5.5 12 5.945312 12 6.5 C 12 7.054688 11.554688 7.5 11 7.5 L 8.882812 7.5 C 8.828125 7.535156 8.773438 7.566406 8.722656 7.597656 L 7.140625 8.5 L 11 8.5 C 11.554688 8.5 12 8.945312 12 9.5 C 12 10.054688 11.554688 10.5 11 10.5 L 3.847656 10.5 C 3.625 10.769531 3.5 11.109375 3.5 11.46875 C 3.5 12.316406 4.183594 13 5.003906 13 L 6.386719 13 C 7.039062 13 7.679688 12.777344 8.191406 12.367188 L 8.375 12.21875 C 8.804688 11.847656 9.433594 11.945312 9.753906 12.375 C 10.125 12.804688 10.054688 13.433594 9.597656 13.753906 L 9.441406 13.929688 C 8.570312 14.621094 7.496094 15 6.386719 15 L 5.003906 15 C 3.082031 15 1.5 13.417969 1.5 11.46875 C 1.5 11.136719 1.546875 10.808594 1.636719 10.5 L 1 10.5 C 0.449219 10.5 0 10.054688 0 9.5 C 0 8.945312 0.449219 8.5 1 8.5 L 3.121094 8.5 C 3.171875 8.464844 3.226562 8.433594 3.277344 8.402344 L 4.859375 7.5 L 1 7.5 C 0.449219 7.5 0 7.054688 0 6.5 C 0 5.945312 0.449219 5.5 1 5.5 L 8.152344 5.5 C 8.347656 5.230469 8.5 4.890625 8.5 4.503906 C 8.5 3.683594 7.816406 3 6.96875 3 L 5.613281 3 C 4.960938 3 4.320312 3.222656 3.808594 3.632812 Z M 3.597656 3.753906 "/>
</g>
</svg>
